<?xml version="1.0" encoding="utf-8"?>
<!-- Generator: Adobe Illustrator 25.0.1, SVG Export Plug-In . SVG Version: 6.00 Build 0)  -->
<svg version="1.0" id="Layer_1" xmlns="http://www.w3.org/2000/svg" xmlns:xlink="http://www.w3.org/1999/xlink" x="0px" y="0px"
	 viewBox="0 0 346 220" style="enable-background:new 0 0 346 220;" xml:space="preserve">
<style type="text/css">
	.st0{fill:#606469;}
	.st1{clip-path:url(#SVGID_2_);fill:#EEEDEE;}
	.st2{clip-path:url(#SVGID_4_);fill:#FFFFFF;}
	.st3{clip-path:url(#SVGID_6_);}
	.st4{clip-path:url(#SVGID_11_);}
	.st5{clip-path:url(#SVGID_16_);}
	.st6{clip-path:url(#SVGID_17_);}
	.st7{clip-path:url(#SVGID_23_);}
	.st8{clip-path:url(#SVGID_24_);}
	.st9{clip-path:url(#SVGID_25_);}
	.st10{clip-path:url(#SVGID_26_);fill:#DC4637;}
	.st11{clip-path:url(#SVGID_31_);}
	.st12{clip-path:url(#SVGID_32_);}
	.st13{clip-path:url(#SVGID_33_);}
	.st14{clip-path:url(#SVGID_34_);fill:#0F9D58;}
	.st15{clip-path:url(#SVGID_39_);}
	.st16{clip-path:url(#SVGID_40_);}
	.st17{clip-path:url(#SVGID_41_);}
	.st18{clip-path:url(#SVGID_42_);fill:#FFCE41;}
	.st19{clip-path:url(#SVGID_47_);}
	.st20{clip-path:url(#SVGID_48_);}
	.st21{clip-path:url(#SVGID_49_);}
	.st22{clip-path:url(#SVGID_50_);}
	.st23{fill:#F2F2F2;}
	.st24{fill:#557EBF;}
	.st25{clip-path:url(#SVGID_52_);fill:#212121;fill-opacity:5.000000e-02;}
	.st26{fill:#212121;fill-opacity:2.000000e-02;}
	.st27{fill:#FFFFFF;fill-opacity:5.000000e-02;}
	.st28{fill:#231F20;fill-opacity:0.1;}
	.st29{fill:url(#SVGID_53_);}
	.st30{fill:none;}
</style>
<g>
	<g>
		<g>
			<path class="st0" d="M133,128.1c-2.3,0-4.2-0.8-5.7-2.3c-1.5-1.5-2.3-3.5-2.3-5.8s0.8-4.2,2.3-5.8c1.5-1.5,3.4-2.3,5.7-2.3
				c2.3,0,4.2,0.8,5.7,2.5l-1.4,1.3c-1.1-1.3-2.5-2-4.3-2c-1.7,0-3.1,0.6-4.3,1.7c-1.2,1.1-1.7,2.6-1.7,4.5c0,1.8,0.6,3.3,1.7,4.5
				c1.2,1.1,2.6,1.7,4.3,1.7c1.9,0,3.4-0.8,4.8-2.2l1.4,1.4c-0.7,0.8-1.6,1.5-2.7,2C135.4,127.8,134.3,128.1,133,128.1z"/>
			<path class="st0" d="M142.9,112.3v4.9l-0.1,1.5h0.1c0.3-0.5,0.7-0.9,1.4-1.3c0.6-0.4,1.3-0.5,2-0.5c1.3,0,2.3,0.4,3,1.2
				c0.7,0.8,1,1.9,1,3.2v6.5h-2v-6.2c0-2-0.9-2.9-2.6-2.9c-0.8,0-1.5,0.3-2,1c-0.5,0.7-0.8,1.4-0.8,2.3v5.8h-2v-15.4L142.9,112.3
				L142.9,112.3z"/>
			<path class="st0" d="M154.6,127.7h-2v-10.6h1.9v1.7h0.1c0.2-0.6,0.6-1.1,1.2-1.4c0.6-0.4,1.2-0.6,1.8-0.6s1.1,0.1,1.5,0.3
				l-0.8,1.9c-0.3-0.1-0.6-0.2-1.1-0.2c-0.7,0-1.4,0.3-1.9,0.9c-0.6,0.6-0.8,1.3-0.8,2.2V127.7z"/>
			<path class="st0" d="M160.7,118.4c1-1.1,2.3-1.6,3.9-1.6c1.6,0,2.9,0.5,3.9,1.6c1,1.1,1.5,2.4,1.5,4c0,1.6-0.5,3-1.5,4
				c-1,1.1-2.3,1.6-3.9,1.6c-1.6,0-2.9-0.5-3.9-1.6c-1-1.1-1.5-2.4-1.5-4C159.2,120.8,159.7,119.5,160.7,118.4z M162.2,125.2
				c0.7,0.7,1.5,1,2.4,1c0.9,0,1.7-0.4,2.4-1c0.7-0.7,1-1.6,1-2.8s-0.3-2.1-1-2.8c-0.7-0.7-1.5-1-2.4-1c-0.9,0-1.7,0.4-2.4,1
				c-0.7,0.7-1,1.6-1,2.8S161.5,124.5,162.2,125.2z"/>
			<path class="st0" d="M171.7,127.7v-10.6h1.9v1.5h0.1c0.3-0.5,0.8-0.9,1.4-1.3c0.6-0.4,1.2-0.5,1.9-0.5c1.6,0,2.8,0.7,3.3,2
				c0.9-1.3,2.1-2,3.7-2c1.3,0,2.2,0.4,2.8,1.2c0.6,0.8,1,1.9,1,3.2v6.5h-2v-6.2c0-1.1-0.2-1.8-0.6-2.3c-0.4-0.4-1-0.7-1.8-0.7
				c-0.8,0-1.4,0.3-1.9,1c-0.5,0.7-0.8,1.4-0.8,2.3v5.8h-2v-6.2c0-1.1-0.2-1.8-0.6-2.3c-0.4-0.4-1-0.7-1.8-0.7c-0.8,0-1.4,0.3-1.9,1
				c-0.5,0.7-0.8,1.4-0.8,2.3v5.8L171.7,127.7L171.7,127.7z"/>
			<path class="st0" d="M194.8,128.1c-1.6,0-2.9-0.5-3.9-1.6c-1-1.1-1.5-2.4-1.5-4c0-1.5,0.5-2.9,1.5-4c1-1.1,2.2-1.7,3.7-1.7
				c1.6,0,2.8,0.5,3.8,1.5c0.9,1,1.4,2.4,1.4,4.1l0,0.4h-8.4c0.1,1.1,0.4,1.9,1.1,2.5c0.7,0.6,1.4,0.9,2.3,0.9
				c1.4,0,2.4-0.6,2.9-1.8l1.8,0.7c-0.3,0.8-0.9,1.5-1.7,2.1C197,127.8,196,128.1,194.8,128.1z M197.7,121.2c0-0.6-0.3-1.2-0.8-1.7
				c-0.5-0.6-1.3-0.8-2.3-0.8c-0.7,0-1.4,0.2-1.9,0.7c-0.5,0.5-0.9,1.1-1.1,1.9H197.7z"/>
			<path class="st0" d="M223.8,112.3l-4.1,15.4h-2l-3.3-10.2h-0.1l-3.3,10.2h-2l-4.3-15.4h2.1l3.3,12.2h0.1l3.3-10.1h1.9l3.3,10.1
				h0.1l3.1-12.2H223.8z"/>
			<path class="st0" d="M229,128.1c-1.6,0-2.9-0.5-3.9-1.6c-1-1.1-1.5-2.4-1.5-4c0-1.5,0.5-2.9,1.5-4c1-1.1,2.2-1.7,3.7-1.7
				c1.6,0,2.8,0.5,3.8,1.5c0.9,1,1.4,2.4,1.4,4.1l0,0.4h-8.4c0.1,1.1,0.4,1.9,1.1,2.5c0.7,0.6,1.4,0.9,2.3,0.9
				c1.4,0,2.4-0.6,2.9-1.8l1.8,0.7c-0.3,0.8-0.9,1.5-1.7,2.1C231.1,127.8,230.1,128.1,229,128.1z M231.8,121.2
				c0-0.6-0.3-1.2-0.8-1.7c-0.5-0.6-1.3-0.8-2.3-0.8c-0.7,0-1.4,0.2-1.9,0.7c-0.5,0.5-0.9,1.1-1.1,1.9H231.8z"/>
			<path class="st0" d="M241.3,128.1c-0.8,0-1.5-0.2-2.2-0.5c-0.6-0.3-1.1-0.8-1.4-1.3h-0.1v1.5h-1.9v-15.4h2v4.9l-0.1,1.5h0.1
				c0.3-0.5,0.8-1,1.4-1.3c0.6-0.3,1.4-0.5,2.2-0.5c1.4,0,2.5,0.5,3.5,1.6c1,1.1,1.5,2.4,1.5,4c0,1.6-0.5,2.9-1.5,4
				C243.9,127.5,242.7,128.1,241.3,128.1z M241,126.3c0.9,0,1.7-0.4,2.4-1c0.7-0.7,1-1.6,1-2.8s-0.3-2.1-1-2.8c-0.7-0.7-1.5-1-2.4-1
				c-0.9,0-1.7,0.3-2.4,1c-0.7,0.7-1,1.6-1,2.8s0.3,2.1,1,2.8C239.3,125.9,240.1,126.3,241,126.3z"/>
			<path class="st0" d="M257,128.1c-1.1,0-2.2-0.4-3.3-1.1c-1.1-0.7-1.8-1.8-2.1-3.1l1.8-0.7c0.2,0.8,0.7,1.6,1.3,2.1
				s1.4,0.9,2.3,0.9c0.9,0,1.6-0.2,2.2-0.7c0.6-0.5,0.9-1.1,0.9-1.8c0-0.9-0.3-1.5-0.9-2s-1.6-0.9-2.9-1.3c-1.4-0.4-2.4-1-3.1-1.7
				c-0.7-0.7-1.1-1.6-1.1-2.6c0-1.1,0.4-2.1,1.3-2.9c0.9-0.8,2-1.2,3.4-1.2c1.3,0,2.4,0.3,3.2,1s1.3,1.4,1.6,2.1l-1.8,0.8
				c-0.1-0.5-0.4-0.9-1-1.4c-0.5-0.4-1.2-0.6-2-0.6c-0.8,0-1.4,0.2-1.9,0.6c-0.5,0.4-0.8,1-0.8,1.6c0,0.6,0.2,1.1,0.7,1.5
				c0.5,0.4,1.2,0.8,2.2,1.1c0.8,0.2,1.4,0.5,1.9,0.7c0.5,0.2,1,0.5,1.5,0.9c0.5,0.4,0.9,0.9,1.2,1.4c0.3,0.6,0.4,1.2,0.4,2
				c0,0.8-0.2,1.4-0.5,2c-0.3,0.6-0.7,1.1-1.2,1.4c-0.5,0.3-1.1,0.6-1.7,0.8C258.2,128,257.6,128.1,257,128.1z"/>
			<path class="st0" d="M268.3,127.9c-1.1,0-1.9-0.3-2.5-0.9c-0.6-0.6-0.9-1.4-0.9-2.5V119H263v-1.8h1.9v-3.2h2v3.2h2.6v1.8h-2.6
				v5.4c0,1.1,0.5,1.7,1.4,1.7c0.4,0,0.7-0.1,0.9-0.2l0.7,1.7C269.4,127.8,268.9,127.9,268.3,127.9z"/>
			<path class="st0" d="M272.1,118.4c1-1.1,2.3-1.6,3.9-1.6s2.9,0.5,3.9,1.6c1,1.1,1.5,2.4,1.5,4c0,1.6-0.5,3-1.5,4
				c-1,1.1-2.3,1.6-3.9,1.6s-2.9-0.5-3.9-1.6c-1-1.1-1.5-2.4-1.5-4C270.6,120.8,271.1,119.5,272.1,118.4z M273.6,125.2
				c0.7,0.7,1.5,1,2.4,1s1.7-0.4,2.4-1c0.7-0.7,1-1.6,1-2.8s-0.3-2.1-1-2.8c-0.7-0.7-1.5-1-2.4-1s-1.7,0.4-2.4,1
				c-0.7,0.7-1,1.6-1,2.8S272.9,124.5,273.6,125.2z"/>
			<path class="st0" d="M285.1,127.7h-2v-10.6h1.9v1.7h0.1c0.2-0.6,0.6-1.1,1.2-1.4c0.6-0.4,1.2-0.6,1.8-0.6s1.1,0.1,1.5,0.3
				l-0.8,1.9c-0.3-0.1-0.6-0.2-1.1-0.2c-0.7,0-1.4,0.3-1.9,0.9c-0.6,0.6-0.8,1.3-0.8,2.2V127.7z"/>
			<path class="st0" d="M295,128.1c-1.6,0-2.9-0.5-3.9-1.6s-1.5-2.4-1.5-4c0-1.5,0.5-2.9,1.5-4c1-1.1,2.2-1.7,3.7-1.7
				c1.6,0,2.8,0.5,3.8,1.5c0.9,1,1.4,2.4,1.4,4.1l0,0.4h-8.4c0.1,1.1,0.4,1.9,1.1,2.5c0.7,0.6,1.4,0.9,2.3,0.9
				c1.4,0,2.4-0.6,2.9-1.8l1.8,0.7c-0.3,0.8-0.9,1.5-1.7,2.1C297.2,127.8,296.2,128.1,295,128.1z M297.9,121.2
				c0-0.6-0.3-1.2-0.8-1.7c-0.5-0.6-1.3-0.8-2.3-0.8c-0.7,0-1.4,0.2-1.9,0.7c-0.5,0.5-0.9,1.1-1.1,1.9H297.9z"/>
		</g>
		<g>
			<path class="st0" d="M126.1,103.7l4.4-11.7h1.7l4.4,11.7H135l-1.1-3.2H129l-1.1,3.2H126.1z M129.5,99.2h3.9l-1.9-5.3h-0.1
				L129.5,99.2z"/>
			<path class="st0" d="M139.3,103.7l-3.2-8h1.6l2.3,6.2h0l2.4-6.2h1.6l-3.3,8H139.3z"/>
			<path class="st0" d="M147.4,104c-0.8,0-1.6-0.2-2.1-0.7c-0.6-0.5-0.9-1.1-0.9-1.9c0-0.9,0.3-1.5,1-2.1c0.7-0.5,1.5-0.7,2.5-0.7
				c0.9,0,1.6,0.2,2.2,0.5v-0.2c0-0.6-0.2-1.1-0.6-1.4c-0.4-0.4-0.9-0.5-1.5-0.5c-0.4,0-0.8,0.1-1.2,0.3c-0.4,0.2-0.6,0.5-0.7,0.8
				l-1.4-0.6c0.2-0.5,0.6-0.9,1.1-1.3c0.5-0.4,1.3-0.6,2.2-0.6c1,0,1.9,0.3,2.5,0.9c0.7,0.6,1,1.4,1,2.5v4.8h-1.4v-1.1H150
				C149.5,103.5,148.6,104,147.4,104z M147.7,102.6c0.6,0,1.2-0.2,1.7-0.7c0.5-0.5,0.8-1,0.8-1.6c-0.4-0.4-1.1-0.5-1.9-0.5
				c-0.7,0-1.3,0.2-1.7,0.5c-0.4,0.3-0.6,0.7-0.6,1.1c0,0.4,0.2,0.7,0.5,0.9C146.9,102.5,147.3,102.6,147.7,102.6z"/>
			<path class="st0" d="M154.9,93.7c-0.2,0.2-0.5,0.3-0.8,0.3s-0.5-0.1-0.8-0.3c-0.2-0.2-0.3-0.5-0.3-0.8s0.1-0.5,0.3-0.8
				c0.2-0.2,0.5-0.3,0.8-0.3s0.5,0.1,0.8,0.3c0.2,0.2,0.3,0.5,0.3,0.8S155.1,93.5,154.9,93.7z M154.9,103.7h-1.5v-8h1.5V103.7z"/>
			<path class="st0" d="M158.4,103.7h-1.5V92.1h1.5V103.7z"/>
			<path class="st0" d="M162.6,104c-0.8,0-1.6-0.2-2.1-0.7c-0.6-0.5-0.9-1.1-0.9-1.9c0-0.9,0.3-1.5,1-2.1c0.7-0.5,1.5-0.7,2.5-0.7
				c0.9,0,1.6,0.2,2.2,0.5v-0.2c0-0.6-0.2-1.1-0.6-1.4c-0.4-0.4-0.9-0.5-1.5-0.5c-0.4,0-0.8,0.1-1.2,0.3c-0.4,0.2-0.6,0.5-0.7,0.8
				l-1.4-0.6c0.2-0.5,0.6-0.9,1.1-1.3c0.5-0.4,1.3-0.6,2.2-0.6c1,0,1.9,0.3,2.5,0.9c0.7,0.6,1,1.4,1,2.5v4.8h-1.4v-1.1h-0.1
				C164.7,103.5,163.8,104,162.6,104z M162.9,102.6c0.6,0,1.2-0.2,1.7-0.7c0.5-0.5,0.8-1,0.8-1.6c-0.4-0.4-1.1-0.5-1.9-0.5
				c-0.7,0-1.3,0.2-1.7,0.5c-0.4,0.3-0.6,0.7-0.6,1.1c0,0.4,0.2,0.7,0.5,0.9C162.1,102.5,162.5,102.6,162.9,102.6z"/>
			<path class="st0" d="M172.7,104c-0.6,0-1.2-0.1-1.6-0.4c-0.5-0.3-0.8-0.6-1.1-1h-0.1v1.1h-1.4V92.1h1.5v3.7l-0.1,1.1h0.1
				c0.2-0.4,0.6-0.7,1.1-1c0.5-0.3,1-0.4,1.6-0.4c1,0,1.9,0.4,2.7,1.2c0.8,0.8,1.1,1.8,1.1,3c0,1.2-0.4,2.2-1.1,3
				C174.6,103.6,173.7,104,172.7,104z M172.5,102.6c0.7,0,1.3-0.3,1.8-0.8c0.5-0.5,0.8-1.2,0.8-2.1c0-0.9-0.2-1.6-0.8-2.1
				c-0.5-0.5-1.1-0.8-1.8-0.8c-0.7,0-1.3,0.3-1.8,0.8c-0.5,0.5-0.7,1.2-0.7,2.1c0,0.9,0.2,1.6,0.7,2.1
				C171.1,102.4,171.7,102.6,172.5,102.6z"/>
			<path class="st0" d="M179.3,103.7h-1.5V92.1h1.5V103.7z"/>
			<path class="st0" d="M184.7,104c-1.2,0-2.2-0.4-2.9-1.2c-0.8-0.8-1.1-1.8-1.1-3.1c0-1.2,0.4-2.2,1.1-3c0.7-0.8,1.7-1.3,2.8-1.3
				c1.2,0,2.1,0.4,2.9,1.2c0.7,0.8,1.1,1.8,1.1,3.1l0,0.3h-6.3c0,0.8,0.3,1.4,0.8,1.9c0.5,0.5,1.1,0.7,1.7,0.7
				c1.1,0,1.8-0.5,2.2-1.4l1.3,0.6c-0.3,0.6-0.7,1.1-1.3,1.6C186.3,103.8,185.5,104,184.7,104z M186.8,98.8c0-0.5-0.2-0.9-0.6-1.3
				s-1-0.6-1.7-0.6c-0.6,0-1,0.2-1.4,0.5c-0.4,0.4-0.7,0.8-0.8,1.4L186.8,98.8L186.8,98.8z"/>
			<path class="st0" d="M195,93.7c-0.2,0.2-0.5,0.3-0.8,0.3s-0.5-0.1-0.8-0.3c-0.2-0.2-0.3-0.5-0.3-0.8s0.1-0.5,0.3-0.8
				c0.2-0.2,0.5-0.3,0.8-0.3s0.5,0.1,0.8,0.3c0.2,0.2,0.3,0.5,0.3,0.8S195.2,93.5,195,93.7z M195,103.7h-1.5v-8h1.5V103.7z"/>
			<path class="st0" d="M198.4,95.7v1.1h0.1c0.2-0.4,0.6-0.7,1-1c0.5-0.3,1-0.4,1.5-0.4c1,0,1.7,0.3,2.3,0.9
				c0.5,0.6,0.8,1.4,0.8,2.5v4.9h-1.5v-4.7c0-1.5-0.7-2.2-2-2.2c-0.6,0-1.1,0.2-1.5,0.7c-0.4,0.5-0.6,1.1-0.6,1.7v4.4H197v-8
				L198.4,95.7L198.4,95.7z"/>
			<path class="st0" d="M212.9,103.9c-0.8,0-1.5-0.2-1.9-0.7c-0.4-0.4-0.7-1.1-0.7-1.9v-4.2h-1.4v-1.4h1.4v-2.5h1.5v2.5h2v1.4h-2
				v4.1c0,0.9,0.4,1.3,1.1,1.3c0.3,0,0.5,0,0.7-0.1l0.5,1.3C213.8,103.8,213.4,103.9,212.9,103.9z"/>
			<path class="st0" d="M216.8,92.1v3.7l-0.1,1.1h0.1c0.2-0.4,0.6-0.7,1-1c0.5-0.3,1-0.4,1.5-0.4c1,0,1.7,0.3,2.3,0.9
				c0.5,0.6,0.8,1.4,0.8,2.5v4.9h-1.5v-4.7c0-1.5-0.7-2.2-2-2.2c-0.6,0-1.1,0.2-1.5,0.7c-0.4,0.5-0.6,1.1-0.6,1.7v4.4h-1.5V92.1
				L216.8,92.1L216.8,92.1z"/>
			<path class="st0" d="M227.8,104c-1.2,0-2.2-0.4-2.9-1.2c-0.8-0.8-1.1-1.8-1.1-3.1c0-1.2,0.4-2.2,1.1-3s1.7-1.3,2.8-1.3
				c1.2,0,2.1,0.4,2.9,1.2c0.7,0.8,1.1,1.8,1.1,3.1l0,0.3h-6.3c0,0.8,0.3,1.4,0.8,1.9c0.5,0.5,1.1,0.7,1.7,0.7
				c1.1,0,1.8-0.5,2.2-1.4l1.3,0.6c-0.3,0.6-0.7,1.1-1.3,1.6C229.4,103.8,228.6,104,227.8,104z M229.9,98.8c0-0.5-0.2-0.9-0.6-1.3
				c-0.4-0.4-1-0.6-1.7-0.6c-0.6,0-1,0.2-1.4,0.5c-0.4,0.4-0.7,0.8-0.8,1.4L229.9,98.8L229.9,98.8z"/>
		</g>
	</g>
	<g>
		<g>
			<g>
				<defs>
					<path id="SVGID_1_" d="M46,82.2v51.1c0,2.4,2,4.4,4.4,4.4h55.5c2.4,0,4.4-2,4.4-4.4V82.2H46z M85.4,93.9H70.8
						c-1.6,0-2.9-1.3-2.9-2.9s1.3-2.9,2.9-2.9h14.6c1.6,0,2.9,1.3,2.9,2.9S87,93.9,85.4,93.9z"/>
				</defs>
				<clipPath id="SVGID_2_">
					<use xlink:href="#SVGID_1_"  style="overflow:visible;"/>
				</clipPath>
				<path class="st1" d="M46,82.2h64.3v55.5H46V82.2z"/>
			</g>
		</g>
		<g>
			<g>
				<defs>
					<path id="SVGID_3_" d="M46,82.2v51.1c0,2.4,2,4.4,4.4,4.4h55.5c2.4,0,4.4-2,4.4-4.4V82.2H46z M85.4,93.9H70.8
						c-1.6,0-2.9-1.3-2.9-2.9s1.3-2.9,2.9-2.9h14.6c1.6,0,2.9,1.3,2.9,2.9S87,93.9,85.4,93.9z"/>
				</defs>
				<clipPath id="SVGID_4_">
					<use xlink:href="#SVGID_3_"  style="overflow:visible;"/>
				</clipPath>
				<path class="st2" d="M85.4,88.1H70.8c-1.6,0-2.9,1.3-2.9,2.9s1.3,2.9,2.9,2.9h14.6c1.6,0,2.9-1.3,2.9-2.9S87,88.1,85.4,88.1z"/>
			</g>
		</g>
		<g>
			<g>
				<defs>
					<path id="SVGID_5_" d="M46,82.2v51.1c0,2.4,2,4.4,4.4,4.4h55.5c2.4,0,4.4-2,4.4-4.4V82.2H46z M85.4,93.9H70.8
						c-1.6,0-2.9-1.3-2.9-2.9s1.3-2.9,2.9-2.9h14.6c1.6,0,2.9,1.3,2.9,2.9S87,93.9,85.4,93.9z"/>
				</defs>
				<clipPath id="SVGID_6_">
					<use xlink:href="#SVGID_5_"  style="overflow:visible;"/>
				</clipPath>
				<g class="st3">
					<g>
						<g>
							<defs>
								
									<ellipse id="SVGID_7_" transform="matrix(7.088902e-02 -0.9975 0.9975 7.088902e-02 -60.4494 201.8382)" cx="78.1" cy="133.4" rx="27.8" ry="27.8"/>
							</defs>
							<clipPath id="SVGID_8_">
								<use xlink:href="#SVGID_7_"  style="overflow:visible;"/>
							</clipPath>
						</g>
						<g>
							<defs>
								
									<ellipse id="SVGID_9_" transform="matrix(7.088902e-02 -0.9975 0.9975 7.088902e-02 -60.4494 201.8382)" cx="78.1" cy="133.4" rx="27.8" ry="27.8"/>
							</defs>
							<defs>
								
									<ellipse id="SVGID_10_" transform="matrix(7.088902e-02 -0.9975 0.9975 7.088902e-02 -60.4494 201.8382)" cx="78.1" cy="133.4" rx="27.8" ry="27.8"/>
							</defs>
							<clipPath id="SVGID_11_">
								<use xlink:href="#SVGID_9_"  style="overflow:visible;"/>
							</clipPath>
							<clipPath id="SVGID_12_" class="st4">
								<use xlink:href="#SVGID_10_"  style="overflow:visible;"/>
							</clipPath>
						</g>
						<g>
							<defs>
								
									<ellipse id="SVGID_13_" transform="matrix(7.088902e-02 -0.9975 0.9975 7.088902e-02 -60.4494 201.8382)" cx="78.1" cy="133.4" rx="27.8" ry="27.8"/>
							</defs>
							<defs>
								
									<ellipse id="SVGID_14_" transform="matrix(7.088902e-02 -0.9975 0.9975 7.088902e-02 -60.4494 201.8382)" cx="78.1" cy="133.4" rx="27.8" ry="27.8"/>
							</defs>
							<defs>
								
									<ellipse id="SVGID_15_" transform="matrix(7.088902e-02 -0.9975 0.9975 7.088902e-02 -60.4494 201.8382)" cx="78.1" cy="133.4" rx="27.8" ry="27.8"/>
							</defs>
							<clipPath id="SVGID_16_">
								<use xlink:href="#SVGID_13_"  style="overflow:visible;"/>
							</clipPath>
							<clipPath id="SVGID_17_" class="st5">
								<use xlink:href="#SVGID_14_"  style="overflow:visible;"/>
							</clipPath>
							<clipPath id="SVGID_18_" class="st6">
								<use xlink:href="#SVGID_15_"  style="overflow:visible;"/>
							</clipPath>
						</g>
						<g>
							<defs>
								
									<ellipse id="SVGID_19_" transform="matrix(7.088902e-02 -0.9975 0.9975 7.088902e-02 -60.4494 201.8382)" cx="78.1" cy="133.4" rx="27.8" ry="27.8"/>
							</defs>
							<defs>
								
									<ellipse id="SVGID_20_" transform="matrix(7.088902e-02 -0.9975 0.9975 7.088902e-02 -60.4494 201.8382)" cx="78.1" cy="133.4" rx="27.8" ry="27.8"/>
							</defs>
							<defs>
								
									<ellipse id="SVGID_21_" transform="matrix(7.088902e-02 -0.9975 0.9975 7.088902e-02 -60.4494 201.8382)" cx="78.1" cy="133.4" rx="27.8" ry="27.8"/>
							</defs>
							<defs>
								
									<ellipse id="SVGID_22_" transform="matrix(7.088902e-02 -0.9975 0.9975 7.088902e-02 -60.4494 201.8382)" cx="78.1" cy="133.4" rx="27.8" ry="27.8"/>
							</defs>
							<clipPath id="SVGID_23_">
								<use xlink:href="#SVGID_19_"  style="overflow:visible;"/>
							</clipPath>
							<clipPath id="SVGID_24_" class="st7">
								<use xlink:href="#SVGID_20_"  style="overflow:visible;"/>
							</clipPath>
							<clipPath id="SVGID_25_" class="st8">
								<use xlink:href="#SVGID_21_"  style="overflow:visible;"/>
							</clipPath>
							<clipPath id="SVGID_26_" class="st9">
								<use xlink:href="#SVGID_22_"  style="overflow:visible;"/>
							</clipPath>
							<path class="st10" d="M54.8,105.6v34.1h12.4l10.9-18.9h27.8v-15.1H54.8z M54.8,105.6v34.1h12.4l10.9-18.9h27.8v-15.1H54.8z"
								/>
						</g>
						<g>
							<defs>
								
									<ellipse id="SVGID_27_" transform="matrix(7.088902e-02 -0.9975 0.9975 7.088902e-02 -60.4494 201.8382)" cx="78.1" cy="133.4" rx="27.8" ry="27.8"/>
							</defs>
							<defs>
								
									<ellipse id="SVGID_28_" transform="matrix(7.088902e-02 -0.9975 0.9975 7.088902e-02 -60.4494 201.8382)" cx="78.1" cy="133.4" rx="27.8" ry="27.8"/>
							</defs>
							<defs>
								
									<ellipse id="SVGID_29_" transform="matrix(7.088902e-02 -0.9975 0.9975 7.088902e-02 -60.4494 201.8382)" cx="78.1" cy="133.4" rx="27.8" ry="27.8"/>
							</defs>
							<defs>
								
									<ellipse id="SVGID_30_" transform="matrix(7.088902e-02 -0.9975 0.9975 7.088902e-02 -60.4494 201.8382)" cx="78.1" cy="133.4" rx="27.8" ry="27.8"/>
							</defs>
							<clipPath id="SVGID_31_">
								<use xlink:href="#SVGID_27_"  style="overflow:visible;"/>
							</clipPath>
							<clipPath id="SVGID_32_" class="st11">
								<use xlink:href="#SVGID_28_"  style="overflow:visible;"/>
							</clipPath>
							<clipPath id="SVGID_33_" class="st12">
								<use xlink:href="#SVGID_29_"  style="overflow:visible;"/>
							</clipPath>
							<clipPath id="SVGID_34_" class="st13">
								<use xlink:href="#SVGID_30_"  style="overflow:visible;"/>
							</clipPath>
							<path class="st14" d="M50.4,161.1h26.4L89,148.9v-9.2H67.2l-16.8-28.9C50.4,110.8,50.4,161.1,50.4,161.1z M50.4,161.1h26.4
								L89,148.9v-9.2H67.2l-16.8-28.9C50.4,110.8,50.4,161.1,50.4,161.1z"/>
						</g>
						<g>
							<defs>
								
									<ellipse id="SVGID_35_" transform="matrix(7.088902e-02 -0.9975 0.9975 7.088902e-02 -60.4494 201.8382)" cx="78.1" cy="133.4" rx="27.8" ry="27.8"/>
							</defs>
							<defs>
								
									<ellipse id="SVGID_36_" transform="matrix(7.088902e-02 -0.9975 0.9975 7.088902e-02 -60.4494 201.8382)" cx="78.1" cy="133.4" rx="27.8" ry="27.8"/>
							</defs>
							<defs>
								
									<ellipse id="SVGID_37_" transform="matrix(7.088902e-02 -0.9975 0.9975 7.088902e-02 -60.4494 201.8382)" cx="78.1" cy="133.4" rx="27.8" ry="27.8"/>
							</defs>
							<defs>
								
									<ellipse id="SVGID_38_" transform="matrix(7.088902e-02 -0.9975 0.9975 7.088902e-02 -60.4494 201.8382)" cx="78.1" cy="133.4" rx="27.8" ry="27.8"/>
							</defs>
							<clipPath id="SVGID_39_">
								<use xlink:href="#SVGID_35_"  style="overflow:visible;"/>
							</clipPath>
							<clipPath id="SVGID_40_" class="st15">
								<use xlink:href="#SVGID_36_"  style="overflow:visible;"/>
							</clipPath>
							<clipPath id="SVGID_41_" class="st16">
								<use xlink:href="#SVGID_37_"  style="overflow:visible;"/>
							</clipPath>
							<clipPath id="SVGID_42_" class="st17">
								<use xlink:href="#SVGID_38_"  style="overflow:visible;"/>
							</clipPath>
							<path class="st18" d="M78.1,120.8L89,139.7l-12.3,21.4h29.1v-40.4H78.1z M78.1,120.8L89,139.7l-12.3,21.4h29.1v-40.4H78.1z"
								/>
						</g>
						<g>
							<defs>
								
									<ellipse id="SVGID_43_" transform="matrix(7.088902e-02 -0.9975 0.9975 7.088902e-02 -60.4494 201.8382)" cx="78.1" cy="133.4" rx="27.8" ry="27.8"/>
							</defs>
							<defs>
								
									<ellipse id="SVGID_44_" transform="matrix(7.088902e-02 -0.9975 0.9975 7.088902e-02 -60.4494 201.8382)" cx="78.1" cy="133.4" rx="27.8" ry="27.8"/>
							</defs>
							<defs>
								
									<ellipse id="SVGID_45_" transform="matrix(7.088902e-02 -0.9975 0.9975 7.088902e-02 -60.4494 201.8382)" cx="78.1" cy="133.4" rx="27.8" ry="27.8"/>
							</defs>
							<defs>
								
									<ellipse id="SVGID_46_" transform="matrix(7.088902e-02 -0.9975 0.9975 7.088902e-02 -60.4494 201.8382)" cx="78.1" cy="133.4" rx="27.8" ry="27.8"/>
							</defs>
							<clipPath id="SVGID_47_">
								<use xlink:href="#SVGID_43_"  style="overflow:visible;"/>
							</clipPath>
							<clipPath id="SVGID_48_" class="st19">
								<use xlink:href="#SVGID_44_"  style="overflow:visible;"/>
							</clipPath>
							<clipPath id="SVGID_49_" class="st20">
								<use xlink:href="#SVGID_45_"  style="overflow:visible;"/>
							</clipPath>
							<clipPath id="SVGID_50_" class="st21">
								<use xlink:href="#SVGID_46_"  style="overflow:visible;"/>
							</clipPath>
							<g class="st22">
								<circle class="st23" cx="78.1" cy="133.4" r="12.6"/>
								<circle class="st24" cx="78.1" cy="133.4" r="10.1"/>
							</g>
						</g>
					</g>
					<g>
						<g>
							<defs>
								<path id="SVGID_51_" d="M46,82.2v51.1c0,2.4,2,4.4,4.4,4.4h55.5c2.4,0,4.4-2,4.4-4.4V82.2H46z M85.4,93.9H70.8
									c-1.6,0-2.9-1.3-2.9-2.9s1.3-2.9,2.9-2.9h14.6c1.6,0,2.9,1.3,2.9,2.9S87,93.9,85.4,93.9z"/>
							</defs>
							<clipPath id="SVGID_52_">
								<use xlink:href="#SVGID_51_"  style="overflow:visible;"/>
							</clipPath>
							<path class="st25" d="M46,82.2h64.3V110H46V82.2z"/>
						</g>
					</g>
					<path class="st26" d="M46,109.6h64.3v0.4H46V109.6z"/>
					<path class="st27" d="M46,110h64.3v0.4H46V110z"/>
					<path class="st26" d="M85.4,93.9H70.8c-1.5,0-2.8-1.2-2.9-2.7c0,0.1,0,0.1,0,0.2c0,1.6,1.3,2.9,2.9,2.9h14.6
						c1.6,0,2.9-1.3,2.9-2.9c0-0.1,0-0.1,0-0.2C88.2,92.7,87,93.9,85.4,93.9z M46,82.2v0.4h64.3v-0.4H46z"/>
					<path class="st28" d="M70.8,88.1h14.6c1.5,0,2.8,1.2,2.9,2.7c0-0.1,0-0.1,0-0.2c0-1.6-1.3-2.9-2.9-2.9H70.8
						c-1.6,0-2.9,1.3-2.9,2.9c0,0.1,0,0.1,0,0.2C68,89.3,69.3,88.1,70.8,88.1z M105.9,137.4H50.4c-2.4,0-4.4-2-4.4-4.4v0.4
						c0,2.4,2,4.4,4.4,4.4h55.5c2.4,0,4.4-2,4.4-4.4V133C110.3,135.4,108.3,137.4,105.9,137.4z"/>
					
						<radialGradient id="SVGID_53_" cx="1152.2255" cy="1015.0331" r="332.4361" gradientTransform="matrix(0.25 0 0 0.25 -242.25 -171.75)" gradientUnits="userSpaceOnUse">
						<stop  offset="0" style="stop-color:#FFFFFF;stop-opacity:0.1"/>
						<stop  offset="1" style="stop-color:#FFFFFF;stop-opacity:0"/>
					</radialGradient>
					<path class="st29" d="M46,82.2v51.1c0,2.4,2,4.4,4.4,4.4h55.5c2.4,0,4.4-2,4.4-4.4V82.2H46z M85.4,93.9H70.8
						c-1.6,0-2.9-1.3-2.9-2.9s1.3-2.9,2.9-2.9h14.6c1.6,0,2.9,1.3,2.9,2.9S87,93.9,85.4,93.9z"/>
					<path class="st30" d="M43.1,74.9h70.1v70.1H43.1V74.9z"/>
				</g>
			</g>
		</g>
	</g>
</g>
</svg>
